# xmcd
#
# Track frame offsets:
#	150
#	13710
#	29057
#	47684
#	64770
#	79444
#	96747
#	112409
#	128159
#	144607
#	162327
#	180972
#	199195
#	215367
#	234974
#	251844
#	265454
#
# Disc length: 3726 seconds
# Revision: 0
# Processed by: cddbd v1.5.2PL0 Copyright (c) Steve Scherf et al.
# Submitted via: dBpowerAMP V12.0
#
DISCID=050e8c11
DTITLE=Rascal Flatts - Rewind (Deluxe)
DYEAR=2014
DGENRE=Country
TTITLE0=Payback
TTITLE1=Rewind
TTITLE2=I Have Never Been To Memphis
TTITLE3=DJ Tonight
TTITLE4=Powerful Stuff
TTITLE5=Riot
TTITLE6=Night Of Our Lives
TTITLE7=I Like The Sound Of That
TTITLE8=Aftermath
TTITLE9=I'm On Fire
TTITLE10=Life's A Song
TTITLE11=Honeysuckle Lazy
TTITLE12=The Mechanic
TTITLE13=Compass
TTITLE14=Wildfire
TTITLE15=She Must Like Broken Hearts
TTITLE16=Bring The Family
EXTD=
EXTT0=
EXTT1=
EXTT2=
EXTT3=
EXTT4=
EXTT5=
EXTT6=
EXTT7=
EXTT8=
EXTT9=
EXTT10=
EXTT11=
EXTT12=
EXTT13=
EXTT14=
EXTT15=
EXTT16=
PLAYORDER=
